<svg width="50" height="50" viewBox="0 0 474 474" fill="none" xmlns="http://www.w3.org/2000/svg">
<g clip-path="url(#clip0)">
<path d="M236.85 473.68C367.648 473.68 473.68 367.648 473.68 236.85C473.68 106.052 367.648 0.0200195 236.85 0.0200195C106.052 0.0200195 0.0200195 106.052 0.0200195 236.85C0.0200195 367.648 106.052 473.68 236.85 473.68Z" fill="white"/>
<path d="M460.144 157.874H314.219C320.554 208.467 320.595 264.213 314.339 314.869H460.455C468.981 290.431 473.674 264.187 473.674 236.843C473.678 209.139 468.88 182.573 460.144 157.874Z" fill="#E4E4E4"/>
<path d="M314.219 157.874H460.141C460.115 157.799 460.092 157.736 460.066 157.668C429.756 72.2002 351.79 9.31917 258.114 0.972168C294.361 20.8442 304.948 83.8042 314.219 157.874Z" fill="#D32027"/>
<path d="M258.114 472.697C351.962 464.335 430.041 401.237 460.234 315.541C460.313 315.313 460.38 315.088 460.462 314.868H314.342C305.146 389.338 294.515 452.743 258.114 472.697Z" fill="#D32027"/>
<path d="M0.000976562 236.842C0.000976562 264.19 4.69398 290.43 13.22 314.868H326.533C332.789 264.208 332.748 208.466 326.413 157.873H13.534C4.79798 182.573 0.000976562 209.139 0.000976562 236.842Z" fill="#F3F4F5"/>
<path d="M13.6089 157.668C13.5829 157.735 13.5599 157.799 13.5339 157.874H326.413C317.143 83.804 294.361 20.845 258.11 0.973C251.098 0.352 244.007 0 236.835 0C133.807 0 46.1879 65.802 13.6089 157.668Z" fill="#DB2727"/>
<path d="M326.533 314.868H13.22C13.299 315.089 13.37 315.313 13.448 315.541C45.9 407.643 133.638 473.676 236.835 473.676C244.008 473.676 251.098 473.324 258.109 472.696C294.515 452.743 317.337 389.338 326.533 314.868Z" fill="#DB2727"/>
</g>
<defs>
<clipPath id="clip0">
<rect width="473.68" height="473.68" fill="white"/>
</clipPath>
</defs>
</svg>
