<svg width="30" height="30" viewBox="0 0 474 474" fill="none" xmlns="http://www.w3.org/2000/svg">
<g clip-path="url(#clip0)">
<path d="M315.8 13.535L288.16 90.167C313.671 174.36 313.671 299.321 288.16 383.518L315.799 460.142C407.774 427.619 473.68 339.948 473.68 236.833C473.681 133.737 407.774 46.058 315.8 13.535Z" fill="#D32027"/>
<path d="M315.8 90.167V13.535C291.1 4.79995 264.534 0.00195312 236.838 0.00195312C273.359 0.00195312 222.722 123.774 315.8 90.167Z" fill="#F0C816"/>
<path d="M236.838 473.678C264.533 473.678 291.099 468.88 315.799 460.144V383.52C223.656 374.326 236.838 473.678 236.838 473.678Z" fill="#F0C816"/>
<path d="M0 236.837C0 340.296 66.355 428.198 158.805 460.46V13.229C66.355 45.49 0 133.392 0 236.837Z" fill="#151515"/>
<path d="M315.8 90.167V383.518C341.315 299.321 341.315 174.358 315.8 90.167Z" fill="#E73B36"/>
<path d="M315.8 383.521V90.167C299.675 36.938 273.36 0.00195312 236.839 0.00195312C209.488 0.00195312 183.247 4.69895 158.805 13.229V460.46C183.247 468.99 209.487 473.679 236.839 473.679C273.359 473.678 299.674 436.743 315.8 383.521Z" fill="#FFD72E"/>
</g>
<defs>
<clipPath id="clip0">
<rect width="473.68" height="473.68" fill="white"/>
</clipPath>
</defs>
</svg>
