<svg width="50" height="50" viewBox="0 0 101 100" fill="none" xmlns="http://www.w3.org/2000/svg">
<g clip-path="url(#clip0)">
<path d="M100.58 50C100.58 43.884 99.4766 38.0252 97.4608 32.6088L50.4307 30.4348L3.4005 32.6086C1.38473 38.0252 0.28125 43.884 0.28125 50C0.28125 56.116 1.38473 61.9748 3.4005 67.3912L50.4307 69.5652L97.4608 67.3914C99.4766 61.9748 100.58 56.116 100.58 50Z" fill="#F0F0F0"/>
<path d="M50.4305 100C71.993 100 90.3749 86.4313 97.4607 67.3913H3.40039C10.4861 86.4313 28.8681 100 50.4305 100Z" fill="#0052B4"/>
<path d="M3.40039 32.6088H97.4609C90.3749 13.5687 71.993 0 50.4305 0C28.8681 0 10.4861 13.5687 3.40039 32.6088Z" fill="#D80027"/>
<path d="M63.5132 34.7828H54.7915L56.2453 23.9131L62.0594 19.5652L67.8738 23.9131V32.6088L63.5132 34.7828Z" fill="#338AF3"/>
<path d="M37.348 34.7828H46.0696L44.6159 23.9131L38.8015 19.5652L32.9873 23.9131V32.6088L37.348 34.7828Z" fill="#338AF3"/>
<path d="M56.2454 34.7828H44.6162V23.9131L50.4308 19.5652L56.2454 23.9131V34.7828Z" fill="#0052B4"/>
<path d="M32.9873 32.609V56.5219C32.9873 62.2158 35.7459 67.2795 40.0008 70.4539L43.0534 69.6924L46.9055 73.556C48.0447 73.79 49.2234 73.9133 50.4307 73.9133C51.6315 73.9133 52.8044 73.7916 53.9374 73.5599L58.3347 69.9095L60.8602 70.4468C65.1133 67.2726 67.8739 62.2142 67.8739 56.5219V32.609H32.9873Z" fill="#F0F0F0"/>
<path d="M39.9645 32.6087H32.9873V39.5652H39.9645V32.6087Z" fill="#D80027"/>
<path d="M53.9192 32.6087H46.9419V39.5652H53.9192V32.6087Z" fill="#D80027"/>
<path d="M67.8737 32.6087H60.8965V39.5652H67.8737V32.6087Z" fill="#D80027"/>
<path d="M46.9416 39.5652H39.9644V46.5216H46.9416V39.5652Z" fill="#D80027"/>
<path d="M60.8962 39.5652H53.9189V46.5216H60.8962V39.5652Z" fill="#D80027"/>
<path d="M39.9645 46.5195H32.9873V53.4759H39.9645V46.5195Z" fill="#D80027"/>
<path d="M46.9416 53.4761H39.9644V60.4326H46.9416V53.4761Z" fill="#D80027"/>
<path d="M53.9192 46.5195H46.9419V53.4759H53.9192V46.5195Z" fill="#D80027"/>
<path d="M67.8737 46.5195H60.8965V53.4759H67.8737V46.5195Z" fill="#D80027"/>
<path d="M60.8962 53.4761H53.9189V60.4326H60.8962V53.4761Z" fill="#D80027"/>
<path d="M53.9192 60.4326H46.9419V67.389H53.9192V60.4326Z" fill="#D80027"/>
<path d="M39.9646 60.4332H33.4375C34.0362 63.0191 35.2131 65.3853 36.8269 67.3896H39.9646V60.4332Z" fill="#D80027"/>
<path d="M60.8965 67.3898H64.034C65.6481 65.3855 66.8247 63.019 67.4234 60.4333H60.8965V67.3898Z" fill="#D80027"/>
<path d="M39.9644 67.3898V70.4252C41.9936 71.9476 44.3652 73.0392 46.9416 73.5631V67.3898H39.9644Z" fill="#D80027"/>
<path d="M53.9189 67.3898V73.5631C56.4956 73.0396 58.8669 71.9476 60.8962 70.4252V67.3898H53.9189Z" fill="#D80027"/>
</g>
<defs>
<clipPath id="clip0">
<rect width="100.299" height="100" fill="white" transform="translate(0.28125)"/>
</clipPath>
</defs>
</svg>
