<svg width="50" height="50" viewBox="0 0 474 474" fill="none" xmlns="http://www.w3.org/2000/svg">
<g clip-path="url(#clip0)">
<path d="M236.85 473.681C367.648 473.681 473.68 367.649 473.68 236.851C473.68 106.053 367.648 0.0209961 236.85 0.0209961C106.052 0.0209961 0.0200195 106.053 0.0200195 236.851C0.0200195 367.649 106.052 473.681 236.85 473.681Z" fill="white"/>
<path d="M460.143 157.874C460.117 157.799 460.094 157.736 460.068 157.668C429.756 72.2021 351.789 9.32112 258.113 0.974121C294.361 20.8461 304.947 83.8061 314.222 157.875C320.557 208.468 320.598 264.214 314.342 314.87C305.146 389.34 294.515 452.744 258.114 472.699C351.962 464.337 430.041 401.239 460.234 315.543C460.313 315.315 460.38 315.091 460.462 314.87C468.988 290.432 473.681 264.188 473.681 236.844C473.677 209.141 468.879 182.575 460.143 157.874Z" fill="#BE2126"/>
<path d="M326.412 157.874C317.142 83.804 294.36 20.845 258.109 0.973C251.097 0.352 244.007 0 236.835 0C133.806 0 46.188 65.803 13.608 157.668C13.582 157.735 13.559 157.799 13.533 157.874C4.798 182.575 0 209.141 0 236.842C0 264.19 4.693 290.43 13.219 314.868C13.298 315.089 13.369 315.313 13.447 315.541C45.899 407.643 133.637 473.676 236.834 473.676C244.007 473.676 251.097 473.324 258.108 472.696C294.509 452.742 317.335 389.337 326.531 314.867C332.788 264.209 332.747 208.467 326.412 157.874Z" fill="#CD2227"/>
<path d="M469.664 193.577H308.425C310.209 220.734 310.332 248.62 308.732 275.848H470.431C472.548 263.16 473.677 250.138 473.677 236.844C473.677 222.053 472.271 207.607 469.664 193.577Z" fill="#E4E4E4"/>
<path d="M329.752 193.577H215.242V1.01221C185.946 3.65621 158.206 11.6472 132.971 23.9922V193.582H4.013C1.406 207.611 0 222.058 0 236.846C0 250.14 1.129 263.161 3.246 275.85H132.968V449.688C158.203 462.032 185.943 470.024 215.239 472.671V275.847H330.055C331.659 248.616 331.532 220.73 329.752 193.577Z" fill="#F3F4F5"/>
</g>
<defs>
<clipPath id="clip0">
<rect width="473.681" height="473.681" fill="white"/>
</clipPath>
</defs>
</svg>
