<svg width="50" height="50" viewBox="0 0 475 475" fill="none" xmlns="http://www.w3.org/2000/svg">
<g clip-path="url(#clip0)">
<path d="M237.38 474.76C368.476 474.76 474.75 368.486 474.75 237.39C474.75 106.294 368.476 0.0200195 237.38 0.0200195C106.284 0.0200195 0.00976562 106.294 0.00976562 237.39C0.00976562 368.486 106.284 474.76 237.38 474.76Z" fill="white"/>
<path d="M461.196 158.238C461.17 158.163 461.147 158.099 461.121 158.028C430.739 72.369 352.595 9.34803 258.701 0.978027C295.031 20.895 305.642 83.999 314.938 158.238C321.287 208.946 321.329 264.819 315.058 315.591C305.841 390.231 295.185 453.78 258.701 473.78C352.764 465.399 431.021 402.157 461.283 316.265C461.362 316.036 461.429 315.811 461.512 315.59C470.058 291.092 474.762 264.792 474.762 237.382C474.76 209.621 469.952 182.998 461.196 158.238Z" fill="#EFECEC"/>
<path d="M327.16 158.238C317.865 84.003 295.035 20.9 258.701 0.978C251.673 0.356 244.564 0 237.376 0C134.113 0 46.295 65.956 13.641 158.028C13.615 158.099 13.592 158.163 13.566 158.238C4.80995 182.994 0.00195312 209.621 0.00195312 237.383C0.00195312 264.793 4.70595 291.093 13.252 315.591C13.331 315.812 13.402 316.037 13.481 316.266C46.007 408.578 133.945 474.763 237.378 474.763C244.567 474.763 251.673 474.411 258.701 473.781C295.185 453.781 318.064 390.232 327.28 315.592C333.549 264.819 333.509 208.95 327.16 158.238Z" fill="#F3F4F5"/>
<path d="M470.739 194.021H309.128C310.916 221.24 311.04 249.186 309.435 276.48H471.503C473.624 263.759 474.756 250.708 474.756 237.383C474.76 222.567 473.351 208.08 470.739 194.021Z" fill="#BE2126"/>
<path d="M330.503 194.021H215.73V1.01196C186.367 3.66596 158.564 11.675 133.271 24.048V194.025H4.02395C1.41195 208.084 0.00195312 222.567 0.00195312 237.387C0.00195312 250.712 1.13395 263.762 3.25495 276.484H133.273V450.719C158.565 463.092 186.369 471.101 215.732 473.755V276.48H330.81C332.415 249.186 332.29 221.24 330.503 194.021Z" fill="#D32027"/>
</g>
<defs>
<clipPath id="clip0">
<rect width="474.763" height="474.763" fill="white"/>
</clipPath>
</defs>
</svg>
