<svg width="50" height="50" viewBox="0 0 43 42" fill="none" xmlns="http://www.w3.org/2000/svg">
<path d="M28.7258 1.52365L26.2946 8.26449C28.5387 15.6704 28.5387 26.6626 26.2946 34.0689L28.7258 40.809C36.8162 37.9482 42.6136 30.2362 42.6136 21.1659C42.6136 12.0969 36.8162 4.38458 28.7258 1.52365Z" fill="#E61E25"/>
<path d="M28.7259 8.26455V1.52375C26.5532 0.755391 24.2164 0.333344 21.7802 0.333344C24.9927 0.333344 20.5384 11.2208 28.7259 8.26455Z" fill="#E4E4E4"/>
<path d="M21.7802 41.9999C24.2163 41.9999 26.5532 41.5778 28.7259 40.8094V34.0692C20.6206 33.2603 21.7802 41.9999 21.7802 41.9999Z" fill="#E4E4E4"/>
<path d="M0.947021 21.1662C0.947021 30.2669 6.78379 37.9991 14.916 40.8369V1.4968C6.78379 4.33459 0.947021 12.0669 0.947021 21.1662Z" fill="#3757A6"/>
<path d="M28.7261 8.26453V34.0689C30.9704 26.6626 30.9704 15.6703 28.7261 8.26453Z" fill="#EF4F4E"/>
<path d="M28.7259 34.0692V8.26458C27.3075 3.58237 24.9926 0.333344 21.7801 0.333344C19.3743 0.333344 17.066 0.746508 14.916 1.49684V40.8371C17.066 41.5875 19.3743 42 21.7801 42C24.9926 41.9999 27.3075 38.7509 28.7259 34.0692Z" fill="#F3F4F5"/>
</svg>
