<svg width="43" height="42" viewBox="0 0 43 42" fill="none" xmlns="http://www.w3.org/2000/svg">
<path d="M21.7818 41.6669C33.2868 41.6669 42.6136 32.34 42.6136 20.8348C42.6136 9.32953 33.2868 0.00268555 21.7818 0.00268555C10.2767 0.00268555 0.949951 9.32953 0.949951 20.8348C0.949951 32.34 10.2767 41.6669 21.7818 41.6669Z" fill="white"/>
<path d="M41.4213 13.887H28.5858C29.1431 18.3372 29.1467 23.2408 28.5964 27.6966H41.4489C42.1989 25.5469 42.6117 23.2385 42.6117 20.8332C42.612 18.3963 42.1897 16.0595 41.4213 13.887Z" fill="#D32027"/>
<path d="M28.5859 13.8869H41.4214C41.4191 13.8803 41.4171 13.8748 41.4148 13.8688C38.7484 6.35079 31.8904 0.819613 23.6501 0.0853882C26.8389 1.83338 27.7702 7.37151 28.5859 13.8869Z" fill="#0B0B0B"/>
<path d="M23.6505 41.5795C31.9055 40.844 38.7734 35.2937 41.4292 27.7556C41.4362 27.7356 41.4421 27.7159 41.4493 27.6964H28.5964C27.7876 34.247 26.8524 39.8243 23.6505 41.5795Z" fill="#F3C515"/>
<path d="M0.947021 20.8331C0.947021 23.2387 1.35982 25.5468 2.10978 27.6964H29.6691C30.2194 23.2403 30.2158 18.3371 29.6585 13.8868H2.13749C1.36906 16.0595 0.947021 18.3963 0.947021 20.8331Z" fill="#DB2727"/>
<path d="M2.14368 13.8688C2.1414 13.8747 2.13937 13.8804 2.13708 13.887H29.6587C28.8429 7.3716 26.839 1.83358 23.6506 0.0855874C23.0338 0.0309627 22.4101 0 21.7793 0C12.7167 0 5.00937 5.7881 2.14368 13.8688Z" fill="#151515"/>
<path d="M29.6689 27.6964H2.10962C2.11657 27.7159 2.12281 27.7356 2.12967 27.7556C4.98418 35.8572 12.7017 41.6656 21.779 41.6656C22.4099 41.6656 23.0336 41.6346 23.6503 41.5794C26.8522 39.8243 28.86 34.247 29.6689 27.6964Z" fill="#F8D12E"/>
</svg>
