<svg width="50" height="50" viewBox="0 0 474 474" fill="none" xmlns="http://www.w3.org/2000/svg">
<g clip-path="url(#clip0)">
<path d="M315.802 13.535L288.163 90.167C313.675 174.36 313.675 299.323 288.163 383.52L315.802 460.144C407.777 427.621 473.684 339.949 473.684 236.834C473.684 133.735 407.777 46.059 315.802 13.535Z" fill="#E63026"/>
<path d="M315.802 90.167V13.535C291.102 4.79995 264.536 0.00195312 236.84 0.00195312C273.361 0.00195312 222.723 123.775 315.802 90.167Z" fill="#E4E4E4"/>
<path d="M236.84 473.682C264.535 473.682 291.102 468.884 315.802 460.148V383.524C223.658 374.328 236.84 473.682 236.84 473.682Z" fill="#E4E4E4"/>
<path d="M0 236.837C0 340.297 66.355 428.2 158.806 460.461V13.229C66.355 45.49 0 133.393 0 236.837Z" fill="#359846"/>
<path d="M315.802 90.167V383.52C341.317 299.323 341.317 174.359 315.802 90.167Z" fill="#EF4C4C"/>
<path d="M315.802 383.523V90.167C299.677 36.938 273.361 0.00195312 236.84 0.00195312C209.489 0.00195312 183.248 4.69895 158.806 13.229V460.463C183.248 468.993 209.489 473.683 236.84 473.683C273.361 473.682 299.677 436.746 315.802 383.523Z" fill="#F3F4F5"/>
</g>
<defs>
<clipPath id="clip0">
<rect width="473.684" height="473.684" fill="white"/>
</clipPath>
</defs>
</svg>
