<svg width="30" height="30" viewBox="0 0 474 474" fill="none" xmlns="http://www.w3.org/2000/svg">
<g clip-path="url(#clip0)">
<path d="M236.85 473.68C367.648 473.68 473.68 367.648 473.68 236.85C473.68 106.052 367.648 0.0200195 236.85 0.0200195C106.052 0.0200195 0.0200195 106.052 0.0200195 236.85C0.0200195 367.648 106.052 473.68 236.85 473.68Z" fill="white"/>
<path d="M460.14 157.877H314.219C320.554 208.47 320.595 264.216 314.339 314.872H460.455C468.981 290.43 473.674 264.19 473.674 236.842C473.678 209.143 468.876 182.577 460.14 157.877Z" fill="#EFECEC"/>
<path d="M314.219 157.877H460.141C460.115 157.802 460.092 157.739 460.066 157.671C429.753 72.204 351.786 9.32295 258.105 0.975952C294.358 20.848 304.944 83.808 314.219 157.877Z" fill="#E63026"/>
<path d="M258.109 472.701C351.957 464.339 430.036 401.241 460.229 315.545C460.308 315.317 460.375 315.093 460.457 314.872H314.337C305.143 389.342 294.51 452.746 258.109 472.701Z" fill="#2B479D"/>
<path d="M0.000976562 236.842C0.000976562 264.19 4.69398 290.43 13.22 314.872H326.533C332.789 264.212 332.748 208.47 326.413 157.877H13.534C4.79798 182.577 0.000976562 209.143 0.000976562 236.842Z" fill="#EFEFEF"/>
<path d="M13.6038 157.672C13.5778 157.739 13.5548 157.803 13.5288 157.878H326.412C317.138 83.808 294.356 20.849 258.109 0.977C251.098 0.355 244.007 0 236.835 0C133.807 0 46.1848 65.805 13.6038 157.672Z" fill="#E73B36"/>
<path d="M326.533 314.872H13.2202C13.2992 315.093 13.3702 315.317 13.4482 315.545C45.9002 407.647 133.637 473.68 236.835 473.68C244.008 473.68 251.098 473.328 258.109 472.7C294.51 452.746 317.337 389.342 326.533 314.872Z" fill="#3757A6"/>
</g>
<defs>
<clipPath id="clip0">
<rect width="473.68" height="473.68" fill="white"/>
</clipPath>
</defs>
</svg>
