<svg width="100" height="100" viewBox="0 0 100 100" fill="none" xmlns="http://www.w3.org/2000/svg">
<path d="M100 50C100 77.6135 77.6135 100 50 100C45.9284 100 41.9734 99.5133 38.184 98.5951C16.274 93.2863 0 73.544 0 50C0 26.456 16.274 6.7137 38.184 1.40491C41.9734 0.486708 45.9284 0 50 0C77.6135 0 100 22.3865 100 50Z" fill="#E04955"/>
<path d="M38.1841 1.40491V98.5951C16.274 93.2863 0 73.544 0 50C0 26.456 16.274 6.7137 38.1841 1.40491Z" fill="#5DB33A"/>
<path d="M38.1851 71.1648C49.874 71.1648 59.3497 61.6891 59.3497 50.0002C59.3497 38.3113 49.874 28.8356 38.1851 28.8356C26.4962 28.8356 17.0205 38.3113 17.0205 50.0002C17.0205 61.6891 26.4962 71.1648 38.1851 71.1648Z" fill="#FED22B"/>
<path d="M38.1854 65.0922C32.0743 65.0922 27.1201 60.1382 27.1201 54.0272V39.3822H49.2504V54.0272C49.2504 60.138 44.2964 65.0922 38.1854 65.0922Z" fill="#FFF5F4"/>
<path d="M34.3524 49.9481H32.0833C31.7148 49.9481 31.416 50.2468 31.416 50.6153V52.3329C31.416 53.328 32.2228 54.1348 33.2179 54.1348C34.2129 54.1348 35.0197 53.328 35.0197 52.3329V50.6153C35.0195 50.2466 34.7209 49.9481 34.3524 49.9481Z" fill="#4377C6"/>
<path d="M39.3197 49.9481H37.0506C36.6821 49.9481 36.3833 50.2468 36.3833 50.6153V52.3329C36.3833 53.328 37.19 54.1348 38.1851 54.1348C39.1802 54.1348 39.987 53.328 39.987 52.3329V50.6153C39.987 50.2466 39.6882 49.9481 39.3197 49.9481Z" fill="#4377C6"/>
<path d="M39.3197 44.2067H37.0506C36.6821 44.2067 36.3833 44.5055 36.3833 44.874V46.5914C36.3833 47.5865 37.19 48.3932 38.1851 48.3932C39.1802 48.3932 39.987 47.5865 39.987 46.5914V44.874C39.987 44.5055 39.6882 44.2067 39.3197 44.2067Z" fill="#4377C6"/>
<path d="M39.3197 55.6891H37.0506C36.6821 55.6891 36.3833 55.9879 36.3833 56.3564V58.074C36.3833 59.0691 37.19 59.8758 38.1851 59.8758C39.1802 59.8758 39.987 59.0691 39.987 58.074V56.3564C39.987 55.9879 39.6882 55.6891 39.3197 55.6891Z" fill="#4377C6"/>
<path d="M44.287 49.9481H42.0179C41.6494 49.9481 41.3506 50.2468 41.3506 50.6153V52.3329C41.3506 53.328 42.1573 54.1348 43.1524 54.1348C44.1475 54.1348 44.9543 53.328 44.9543 52.3329V50.6153C44.9543 50.2466 44.6555 49.9481 44.287 49.9481Z" fill="#4377C6"/>
<path d="M49.2504 37.8483H27.1202C26.2731 37.8483 25.5864 38.5348 25.5864 39.382V54.027C25.5864 60.974 31.2382 66.6258 38.1852 66.6258C45.1322 66.6258 50.7842 60.9738 50.7842 54.027V39.382C50.7842 38.535 50.0977 37.8483 49.2504 37.8483ZM47.7167 54.027C47.7167 59.2826 43.4408 63.5583 38.1852 63.5583C32.9296 63.5583 28.6539 59.2826 28.6539 54.027V40.9158H47.7167V54.027Z" fill="#E5646E"/>
<path d="M11.0654 50C11.0654 69.3681 22.0798 86.1636 38.1841 94.4662V98.5951C16.274 93.2863 0 73.544 0 50C0 26.456 16.274 6.7137 38.1841 1.40491V5.53374C22.0798 13.8364 11.0654 30.6319 11.0654 50Z" fill="#5DB33A"/>
<path d="M11.0654 50C11.0654 69.3681 22.0798 86.1636 38.1841 94.4662V98.5951C16.274 93.2863 0 73.544 0 50C0 26.456 16.274 6.7137 38.1841 1.40491V5.53374C22.0798 13.8364 11.0654 30.6319 11.0654 50Z" fill="#5CA33B"/>
<path d="M38.1841 94.4662V98.5951C41.9734 99.5133 45.9285 100 50 100C51.8712 100 53.7178 99.8977 55.5358 99.6973C53.3968 99.4622 51.2986 99.092 49.2495 98.5951C45.364 97.6544 41.6544 96.2577 38.1841 94.4662Z" fill="#DA2F3C"/>
<path d="M55.5358 0.302658C53.7178 0.102249 51.8712 0 50 0C45.9285 0 41.9734 0.486708 38.1841 1.40491V5.53374C41.6544 3.74233 45.364 2.3456 49.2495 1.40491C51.2986 0.907975 53.3968 0.537832 55.5358 0.302658Z" fill="#DA2F3C"/>
</svg>
