<svg width="50" height="50" viewBox="0 0 482 482" fill="none" xmlns="http://www.w3.org/2000/svg">
<g clip-path="url(#clip0)" filter="url(#filter0_d)">
<path d="M240.85 473.679C371.647 473.679 477.68 367.647 477.68 236.849C477.68 106.051 371.647 0.0190125 240.85 0.0190125C110.052 0.0190125 4.01953 106.051 4.01953 236.849C4.01953 367.647 110.052 473.679 240.85 473.679Z" fill="white"/>
<path d="M464.143 157.873H318.218C324.557 208.466 324.594 264.212 318.341 314.868H464.454C472.984 290.43 477.673 264.186 477.673 236.842C477.677 209.139 472.879 182.573 464.143 157.873Z" fill="#2B479D"/>
<path d="M318.218 157.873H464.14C464.118 157.798 464.095 157.735 464.065 157.667C433.756 72.2 355.785 9.31898 262.105 0.971985C298.361 20.844 308.951 83.804 318.218 157.873Z" fill="#EFECEC"/>
<path d="M262.113 472.697C355.961 464.335 434.04 401.237 464.233 315.541C464.312 315.313 464.379 315.088 464.461 314.868H318.345C309.149 389.338 298.514 452.742 262.113 472.697Z" fill="#E63026"/>
<path d="M4 236.841C4 264.189 8.697 290.429 17.219 314.867H330.532C336.792 264.207 336.747 208.465 330.416 157.872H17.534C8.798 182.573 4 209.139 4 236.841Z" fill="#3757A6"/>
<path d="M17.6082 157.668C17.5862 157.735 17.5632 157.799 17.5332 157.874H330.416C321.142 83.804 298.36 20.845 262.109 0.973007C255.097 0.352007 248.007 0.00100709 240.835 0.00100709C137.806 7.09143e-06 50.1912 65.801 17.6082 157.668Z" fill="#EFEFEF"/>
<path d="M330.532 314.867H17.2188C17.2978 315.088 17.3717 315.312 17.4467 315.54C49.8997 407.642 137.641 473.676 240.835 473.676C248.008 473.676 255.098 473.324 262.109 472.696C298.514 452.742 321.336 389.338 330.532 314.867Z" fill="#E73B36"/>
</g>
<defs>
<filter id="filter0_d" x="0" y="0" width="481.68" height="481.68" filterUnits="userSpaceOnUse" color-interpolation-filters="sRGB">
<feFlood flood-opacity="0" result="BackgroundImageFix"/>
<feColorMatrix in="SourceAlpha" type="matrix" values="0 0 0 0 0 0 0 0 0 0 0 0 0 0 0 0 0 0 127 0"/>
<feOffset dy="4"/>
<feGaussianBlur stdDeviation="2"/>
<feColorMatrix type="matrix" values="0 0 0 0 0 0 0 0 0 0 0 0 0 0 0 0 0 0 0.25 0"/>
<feBlend mode="normal" in2="BackgroundImageFix" result="effect1_dropShadow"/>
<feBlend mode="normal" in="SourceGraphic" in2="effect1_dropShadow" result="shape"/>
</filter>
<clipPath id="clip0">
<rect width="473.68" height="473.68" fill="white" transform="translate(4)"/>
</clipPath>
</defs>
</svg>
