<svg width="50" height="50" viewBox="0 0 474 474" fill="none" xmlns="http://www.w3.org/2000/svg">
<g clip-path="url(#clip0)">
<path d="M236.86 473.679C367.658 473.679 473.69 367.647 473.69 236.849C473.69 106.051 367.658 0.019043 236.86 0.019043C106.062 0.019043 0.0300293 106.051 0.0300293 236.849C0.0300293 367.647 106.062 473.679 236.86 473.679Z" fill="white"/>
<path d="M460.147 157.879C460.125 157.804 460.102 157.741 460.072 157.673C429.763 72.206 351.793 9.32503 258.113 0.978027C294.361 20.85 304.951 83.81 314.222 157.879C320.561 208.472 320.598 264.214 314.345 314.874C305.149 389.344 294.514 452.748 258.113 472.703C351.961 464.341 430.04 401.243 460.233 315.547C460.311 315.319 460.379 315.095 460.461 314.874C468.991 290.436 473.68 264.192 473.68 236.848C473.681 209.145 468.883 182.583 460.147 157.879Z" fill="#1C468C"/>
<path d="M326.42 157.879C317.146 83.8089 294.364 20.8499 258.113 0.977859C251.101 0.356859 244.011 0.00585938 236.839 0.00585938C133.81 0.00585938 46.1959 65.8079 13.6129 157.674C13.5909 157.741 13.5679 157.805 13.5379 157.88C4.80191 182.584 0.00390625 209.145 0.00390625 236.849C0.00390625 264.197 4.70091 290.437 13.2229 314.875C13.3019 315.096 13.3759 315.32 13.4509 315.548C45.9029 407.65 133.645 473.683 236.838 473.683C244.011 473.683 251.101 473.331 258.112 472.703C294.513 452.749 317.339 389.344 326.535 314.874C332.796 264.214 332.755 208.476 326.42 157.879Z" fill="#27509F"/>
<path d="M470.509 275.331C470.801 273.57 471.036 271.797 471.283 270.028C471.567 268.065 471.829 266.09 472.065 264.112C472.248 262.474 472.424 260.84 472.577 259.202C472.805 256.865 472.977 254.52 473.13 252.168C473.216 250.825 473.321 249.487 473.384 248.144C473.56 244.397 473.676 240.635 473.676 236.847C473.676 232.595 473.53 228.392 473.302 224.2C473.227 222.828 473.111 221.47 473.01 220.094C472.812 217.267 472.565 214.447 472.266 211.643C472.098 210.095 471.922 208.554 471.724 207.013C471.365 204.253 470.957 201.512 470.512 198.782C470.284 197.425 470.089 196.052 469.846 194.698C469.779 194.324 469.73 193.946 469.663 193.58H469.611C468.93 189.9 468.209 186.224 467.36 182.601H368.276H319.576C319.812 186.24 319.935 189.919 320.122 193.58H308.432C310.216 220.737 310.339 248.619 308.739 275.851H320.38C320.227 279.146 320.144 282.463 319.957 285.746H368.672H468.597C469.285 282.474 469.868 279.164 470.414 275.851H470.436C470.468 275.676 470.483 275.508 470.509 275.331Z" fill="#F1B91B"/>
<path d="M329.759 193.581H329.651C329.46 189.92 329.337 186.24 329.105 182.602H224.733V0.315918C221.547 0.476918 218.402 0.782918 215.253 1.06792V1.01492C214.711 1.06692 214.18 1.14592 213.645 1.19792C211.442 1.41092 209.258 1.67292 207.082 1.94192C205.096 2.18892 203.129 2.46892 201.166 2.76792C199.076 3.08192 196.989 3.39592 194.921 3.76992C192.677 4.16992 190.467 4.63792 188.246 5.09792C186.451 5.47892 184.637 5.81192 182.857 6.23092C179.177 7.09092 175.531 8.04092 171.915 9.07292C170.344 9.52492 168.804 10.0229 167.248 10.5049C164.843 11.2419 162.458 12.0009 160.09 12.8119C158.527 13.3469 156.971 13.9079 155.423 14.4759C152.992 15.3659 150.58 16.3009 148.183 17.2729C146.818 17.8189 145.453 18.3609 144.099 18.9369C140.935 20.2799 137.817 21.6969 134.728 23.1809C134.193 23.4349 133.655 23.6629 133.12 23.9179C133.068 23.9479 133.027 23.9699 132.974 23.9929V23.9999C129.119 25.8849 125.312 27.8629 121.58 29.9529V182.602H6.324C5.475 186.226 4.753 189.898 4.065 193.581H4.02C3.945 193.947 3.904 194.325 3.837 194.699C3.59 196.049 3.392 197.425 3.171 198.783C2.726 201.513 2.311 204.254 1.959 207.014C1.761 208.555 1.585 210.095 1.417 211.644C1.11 214.449 0.871 217.268 0.665 220.095C0.572 221.467 0.452 222.825 0.381 224.201C0.153 228.396 0 232.603 0 236.852C0 240.644 0.116 244.406 0.299 248.146C0.366 249.496 0.467 250.842 0.553 252.185C0.706 254.53 0.882 256.874 1.106 259.204C1.259 260.846 1.428 262.491 1.618 264.118C1.854 266.096 2.115 268.063 2.392 270.027C2.639 271.803 2.882 273.576 3.174 275.337C3.196 275.513 3.219 275.681 3.249 275.857H3.264C3.817 279.174 4.397 282.48 5.081 285.752H121.576V443.742C125.308 445.825 129.115 447.803 132.97 449.688V449.695C132.985 449.702 133 449.71 133.015 449.717C133.789 450.098 134.586 450.431 135.367 450.798C138.217 452.155 141.092 453.472 144.009 454.713C145.441 455.326 146.881 455.895 148.317 456.474C150.647 457.416 152.984 458.321 155.351 459.193C156.929 459.776 158.522 460.349 160.119 460.895C162.464 461.699 164.846 462.451 167.224 463.187C168.78 463.662 170.328 464.167 171.898 464.619C175.563 465.662 179.269 466.635 183.008 467.502C184.687 467.895 186.396 468.209 188.09 468.56C190.367 469.042 192.649 469.517 194.948 469.925C196.986 470.292 199.039 470.606 201.092 470.92C203.093 471.219 205.101 471.503 207.116 471.754C209.27 472.023 211.431 472.281 213.6 472.491C214.146 472.551 214.688 472.629 215.238 472.682V472.622C218.387 472.906 221.535 473.22 224.718 473.381V285.746H329.471C329.662 282.459 329.74 279.142 329.894 275.851H330.055C331.667 248.62 331.539 220.738 329.759 193.581Z" fill="#FAC80D"/>
</g>
<defs>
<clipPath id="clip0">
<rect width="473.69" height="473.69" fill="white"/>
</clipPath>
</defs>
</svg>
