<svg width="474" height="474" viewBox="0 0 474 474" fill="none" xmlns="http://www.w3.org/2000/svg">
<g clip-path="url(#clip0)">
<path d="M236.85 473.68C367.647 473.68 473.68 367.648 473.68 236.85C473.68 106.052 367.647 0.019989 236.85 0.019989C106.052 0.019989 0.0195312 106.052 0.0195312 236.85C0.0195312 367.648 106.052 473.68 236.85 473.68Z" fill="white"/>
<path d="M460.143 157.874C460.117 157.799 460.094 157.736 460.068 157.668C429.756 72.2 351.789 9.31898 258.109 0.971985C294.357 20.844 304.943 83.804 314.218 157.873C320.553 208.466 320.594 264.212 314.338 314.868C305.142 389.338 294.511 452.742 258.11 472.697C351.958 464.335 430.037 401.237 460.23 315.541C460.309 315.313 460.376 315.088 460.458 314.868C468.984 290.43 473.677 264.186 473.677 236.842C473.677 209.139 468.879 182.573 460.143 157.874Z" fill="#D32027"/>
<path d="M326.412 157.874C317.142 83.804 294.36 20.845 258.109 0.973C251.097 0.352 244.007 0 236.835 0C133.806 0 46.187 65.802 13.608 157.668C13.582 157.735 13.559 157.799 13.533 157.874C4.798 182.573 0 209.139 0 236.842C0 264.19 4.693 290.43 13.219 314.868C13.298 315.089 13.369 315.313 13.447 315.541C45.899 407.643 133.637 473.676 236.834 473.676C244.007 473.676 251.097 473.324 258.108 472.696C294.509 452.742 317.335 389.337 326.531 314.867C332.788 264.208 332.747 208.466 326.412 157.874Z" fill="#DB2727"/>
<path d="M277.379 114.72H195.939V359.03H277.379V114.72Z" fill="white"/>
<path d="M358.83 196.16H114.52V277.6H358.83V196.16Z" fill="white"/>
</g>
<defs>
<clipPath id="clip0">
<rect width="473.68" height="473.68" fill="white"/>
</clipPath>
</defs>
</svg>
