<svg width="30" height="30" viewBox="0 0 474 474" fill="none" xmlns="http://www.w3.org/2000/svg">
<g clip-path="url(#clip0)">
<path d="M236.86 473.689C367.658 473.689 473.69 367.656 473.69 236.859C473.69 106.061 367.658 0.0288086 236.86 0.0288086C106.062 0.0288086 0.0300293 106.061 0.0300293 236.859C0.0300293 367.656 106.062 473.689 236.86 473.689Z" fill="white"/>
<path d="M460.15 157.874C460.128 157.799 460.105 157.736 460.075 157.668C429.766 72.2002 351.795 9.31819 258.118 0.971191C294.366 20.8432 294.519 452.748 258.118 472.703C351.967 464.341 430.046 401.243 460.24 315.554C460.318 315.318 460.386 315.094 460.468 314.873C468.998 290.435 473.688 264.19 473.688 236.846C473.684 209.141 468.886 182.574 460.15 157.874Z" fill="#D02027"/>
<path d="M326.422 157.874C317.148 83.804 294.366 20.844 258.114 0.972C251.379 0.381 244.565 0.052 237.685 0.022C237.401 0.022 237.124 0 236.836 0C133.806 0 46.191 65.802 13.608 157.669C13.586 157.736 13.563 157.8 13.533 157.875C4.798 182.574 0 209.141 0 236.843C0 264.191 4.697 290.431 13.219 314.87C13.298 315.091 13.372 315.315 13.447 315.551C45.9 407.646 133.642 473.68 236.836 473.68C237.12 473.68 237.397 473.665 237.685 473.658C244.566 473.636 251.379 473.306 258.114 472.701C294.515 452.747 317.342 389.342 326.537 314.871C332.798 264.21 332.757 208.467 326.422 157.874Z" fill="#DB2727"/>
<path d="M111.272 127.271C111.272 95.1632 137.303 69.1312 169.419 69.1312C180.223 69.1312 190.331 72.0822 198.999 77.2162C186.284 64.6552 168.813 56.8882 149.524 56.8882C110.651 56.8882 79.145 88.3982 79.145 127.267C79.145 166.136 110.655 197.646 149.524 197.646C168.813 197.646 186.284 189.875 198.999 177.31C190.331 182.444 180.222 185.402 169.419 185.402C137.303 185.408 111.272 159.378 111.272 127.271Z" fill="#F3F4F5"/>
<path d="M235.722 89.2441L250.183 112.808L277.063 106.331L259.124 127.373L273.585 150.925L248.044 140.372L230.098 161.408L232.24 133.843L206.699 123.29L233.575 116.817L235.722 89.2441Z" fill="#F3F4F5"/>
</g>
<defs>
<clipPath id="clip0">
<rect width="473.69" height="473.69" fill="white"/>
</clipPath>
</defs>
</svg>
