<svg width="474" height="474" viewBox="0 0 474 474" fill="none" xmlns="http://www.w3.org/2000/svg">
<g clip-path="url(#clip0)">
<path d="M324.756 236.842H473.677C473.677 106.032 367.641 0 236.835 0C302.236 0 324.76 118.425 324.756 236.842Z" fill="#3DAAE0"/>
<path d="M0 236.842H334.935C334.939 118.425 302.236 0 236.835 0C106.036 0 0 106.032 0 236.842Z" fill="#44C1EF"/>
<path d="M319.771 236.842C319.771 355.259 302.24 473.677 236.835 473.677C367.642 473.677 473.677 367.641 473.677 236.842H319.771Z" fill="#E8BD1F"/>
<path d="M334.935 236.842H0C0 367.641 106.036 473.677 236.835 473.677C302.236 473.677 334.935 355.26 334.935 236.842Z" fill="#FDCE0C"/>
</g>
<defs>
<clipPath id="clip0">
<rect width="473.677" height="473.677" fill="white"/>
</clipPath>
</defs>
</svg>
